<?xml version="1.0" encoding="UTF-8"?>
<!-- Draft I (slate, halo + equal gaps + rounded G silhouette).
     Goo filter rounds outer corners and inner concave L-junctions of the
     merged G silhouette by ~10px. Interior frames and coral drops stay crisp. -->
<svg viewBox="0 0 512 512" xmlns="http://www.w3.org/2000/svg">
  <defs>
    <filter id="round" x="-10%" y="-10%" width="120%" height="120%">
      <feGaussianBlur stdDeviation="10"/>
      <feColorMatrix values="1 0 0 0 0
                             0 1 0 0 0
                             0 0 1 0 0
                             0 0 0 30 -15"/>
    </filter>
  </defs>

  <!-- Slate halo (rounded outer + inner via goo filter) -->
  <g fill="#263238" filter="url(#round)">
    <rect x="48"  y="48"  width="96" height="96"/>
    <rect x="128" y="48"  width="96" height="96"/>
    <rect x="208" y="48"  width="96" height="96"/>
    <rect x="288" y="48"  width="96" height="96"/>
    <rect x="368" y="48"  width="96" height="96"/>
    <rect x="48"  y="128" width="96" height="96"/>
    <rect x="48"  y="208" width="96" height="96"/>
    <rect x="208" y="208" width="96" height="96"/>
    <rect x="288" y="208" width="96" height="96"/>
    <rect x="368" y="208" width="96" height="96"/>
    <rect x="48"  y="288" width="96" height="96"/>
    <rect x="368" y="288" width="96" height="96"/>
    <rect x="48"  y="368" width="96" height="96"/>
    <rect x="128" y="368" width="96" height="96"/>
    <rect x="208" y="368" width="96" height="96"/>
    <rect x="288" y="368" width="96" height="96"/>
    <rect x="368" y="368" width="96" height="96"/>
  </g>

  <!-- Coral drop plates -->
  <g fill="#FF6B35" transform="translate(5, 5)">
    <rect x="64"  y="64"  width="64" height="64" rx="10"/>
    <rect x="144" y="64"  width="64" height="64" rx="10"/>
    <rect x="224" y="64"  width="64" height="64" rx="10"/>
    <rect x="304" y="64"  width="64" height="64" rx="10"/>
    <rect x="384" y="64"  width="64" height="64" rx="10"/>
    <rect x="64"  y="144" width="64" height="64" rx="10"/>
    <rect x="64"  y="224" width="64" height="64" rx="10"/>
    <rect x="224" y="224" width="64" height="64" rx="10"/>
    <rect x="304" y="224" width="64" height="64" rx="10"/>
    <rect x="384" y="224" width="64" height="64" rx="10"/>
    <rect x="64"  y="304" width="64" height="64" rx="10"/>
    <rect x="384" y="304" width="64" height="64" rx="10"/>
    <rect x="64"  y="384" width="64" height="64" rx="10"/>
    <rect x="144" y="384" width="64" height="64" rx="10"/>
    <rect x="224" y="384" width="64" height="64" rx="10"/>
    <rect x="304" y="384" width="64" height="64" rx="10"/>
    <rect x="384" y="384" width="64" height="64" rx="10"/>
  </g>

  <!-- Off-white frames -->
  <g fill="#ECEFF1">
    <rect x="64"  y="64"  width="64" height="64" rx="10"/>
    <rect x="144" y="64"  width="64" height="64" rx="10"/>
    <rect x="224" y="64"  width="64" height="64" rx="10"/>
    <rect x="304" y="64"  width="64" height="64" rx="10"/>
    <rect x="384" y="64"  width="64" height="64" rx="10"/>
    <rect x="64"  y="144" width="64" height="64" rx="10"/>
    <rect x="64"  y="224" width="64" height="64" rx="10"/>
    <rect x="304" y="224" width="64" height="64" rx="10"/>
    <rect x="384" y="224" width="64" height="64" rx="10"/>
    <rect x="64"  y="304" width="64" height="64" rx="10"/>
    <rect x="384" y="304" width="64" height="64" rx="10"/>
    <rect x="64"  y="384" width="64" height="64" rx="10"/>
    <rect x="144" y="384" width="64" height="64" rx="10"/>
    <rect x="224" y="384" width="64" height="64" rx="10"/>
    <rect x="304" y="384" width="64" height="64" rx="10"/>
    <rect x="384" y="384" width="64" height="64" rx="10"/>
  </g>

  <!-- Active "now playing" frame + slate play arrow -->
  <rect x="224" y="224" width="64" height="64" rx="10" fill="#FF6B35"/>
  <polygon points="244,238 282,256 244,274" fill="#263238"/>
</svg>
